<svg width="1920" height="800" viewBox="0 0 1920 800" fill="none" xmlns="http://www.w3.org/2000/svg">
<rect width="1920" height="800" fill="url(#paint0_linear)"/>
<g opacity="0.5" filter="url(#filter0_f)">
<path d="M1543.86 219.106C1525.36 237.613 1533.82 269.215 1559.1 275.989L1724.73 320.367C1750.01 327.141 1773.14 304.007 1766.37 278.725L1721.99 113.104C1715.22 87.8227 1683.61 79.355 1665.11 97.8623L1543.86 219.106Z" fill="url(#paint1_linear)"/>
</g>
<path d="M1 0L1170 800H1V0Z" fill="url(#paint2_linear)"/>
<g opacity="0.5" filter="url(#filter1_f)">
<path d="M304.572 465.055C283.009 459.277 263.277 479.009 269.055 500.572L295.708 600.045C301.486 621.609 328.441 628.831 344.226 613.046L417.046 540.226C432.831 524.441 425.609 497.486 404.045 491.708L304.572 465.055Z" fill="url(#paint3_linear)"/>
</g>
<defs>
<filter id="filter0_f" x="1485.06" y="61.2139" width="309.119" height="325.435" filterUnits="userSpaceOnUse" color-interpolation-filters="sRGB">
<feFlood flood-opacity="0" result="BackgroundImageFix"/>
<feBlend mode="normal" in="SourceGraphic" in2="BackgroundImageFix" result="shape"/>
<feGaussianBlur stdDeviation="9.5" result="effect1_foregroundBlur"/>
</filter>
<filter id="filter1_f" x="200.614" y="396.614" width="255.968" height="255.968" filterUnits="userSpaceOnUse" color-interpolation-filters="sRGB">
<feFlood flood-opacity="0" result="BackgroundImageFix"/>
<feBlend mode="normal" in="SourceGraphic" in2="BackgroundImageFix" result="shape"/>
<feGaussianBlur stdDeviation="9.5" result="effect1_foregroundBlur"/>
</filter>
<linearGradient id="paint0_linear" x1="374" y1="111.74" x2="1679.54" y2="803.444" gradientUnits="userSpaceOnUse">
<stop stop-color="#0A088B"/>
<stop offset="1" stop-color="#1261BD"/>
</linearGradient>
<linearGradient id="paint1_linear" x1="1518.93" y1="246.969" x2="1787.02" y2="149.302" gradientUnits="userSpaceOnUse">
<stop stop-color="#08CFD4"/>
<stop offset="1" stop-color="#08CFD4" stop-opacity="0"/>
</linearGradient>
<linearGradient id="paint2_linear" x1="585.5" y1="195.522" x2="916.437" y2="932.569" gradientUnits="userSpaceOnUse">
<stop stop-color="#0A088B"/>
<stop offset="1" stop-color="#1261BD"/>
</linearGradient>
<linearGradient id="paint3_linear" x1="270.324" y1="457.388" x2="424.094" y2="586.338" gradientUnits="userSpaceOnUse">
<stop stop-color="#08CFD4"/>
<stop offset="1" stop-color="#08CFD4" stop-opacity="0"/>
</linearGradient>
</defs>
</svg>
