<svg width="1600" height="1058" viewBox="0 0 1600 1058" fill="none" xmlns="http://www.w3.org/2000/svg">
<rect width="2400" height="1130" transform="translate(-400 -41)" fill="#0C1724"/>
<mask id="mask0" mask-type="alpha" maskUnits="userSpaceOnUse" x="-400" y="-41" width="2400" height="1130">
<rect x="-400" y="-41" width="2400" height="1130" fill="#C4C4C4"/>
</mask>
<g mask="url(#mask0)">
<rect opacity="0.05" x="-197" y="1585.83" width="2007.95" height="578" transform="rotate(-45 -197 1585.83)" fill="url(#paint0_linear)"/>
<rect opacity="0.05" x="323" y="1233.49" width="2471.34" height="578" transform="rotate(-45 323 1233.49)" fill="url(#paint1_linear)"/>
<rect opacity="0.05" x="-872" y="1616.5" width="2471.34" height="578" transform="rotate(-45 -872 1616.5)" fill="url(#paint2_linear)"/>
<rect opacity="0.05" x="908" y="927.17" width="1026.97" height="578" transform="rotate(-45 908 927.17)" fill="url(#paint3_linear)"/>
<rect x="-400" y="889" width="2400" height="200" fill="url(#paint4_linear)"/>
</g>
<defs>
<linearGradient id="paint0_linear" x1="1061.53" y1="1573.22" x2="1489.33" y2="2023.65" gradientUnits="userSpaceOnUse">
<stop stop-color="#D5DCE5"/>
<stop offset="1" stop-color="#D5DCE5" stop-opacity="0"/>
</linearGradient>
<linearGradient id="paint1_linear" x1="1558.67" y1="1233.49" x2="2197.97" y2="1635.05" gradientUnits="userSpaceOnUse">
<stop stop-color="#D5DCE5"/>
<stop offset="1" stop-color="#D5DCE5" stop-opacity="0"/>
</linearGradient>
<linearGradient id="paint2_linear" x1="363.669" y1="1616.5" x2="1002.97" y2="2018.06" gradientUnits="userSpaceOnUse">
<stop stop-color="#D5DCE5"/>
<stop offset="1" stop-color="#D5DCE5" stop-opacity="0"/>
</linearGradient>
<linearGradient id="paint3_linear" x1="1624.42" y1="758.046" x2="1484.89" y2="1280.82" gradientUnits="userSpaceOnUse">
<stop stop-color="#D5DCE5"/>
<stop offset="1" stop-color="#D5DCE5" stop-opacity="0"/>
</linearGradient>
<linearGradient id="paint4_linear" x1="800" y1="889" x2="799.522" y2="1021" gradientUnits="userSpaceOnUse">
<stop stop-color="#0C1724" stop-opacity="0"/>
<stop offset="1" stop-color="#0C1724"/>
</linearGradient>
</defs>
</svg>
