<svg width="728" height="444" xmlns="http://www.w3.org/2000/svg">
 <defs>
  <linearGradient y2="0.49925" x2="0.8609" y1="0.49925" x1="0.09389" id="paint0_linear">
   <stop stop-color="#50568F"/>
   <stop stop-color="#3C3C70" offset="1"/>
  </linearGradient>
  <linearGradient y2="310.86979" x2="199.97987" y1="310.86979" x1="163.3201" id="paint1_linear">
   <stop stop-color="#50568F"/>
   <stop stop-color="#3C3C70" offset="1"/>
  </linearGradient>
 </defs>
 <g>
  <title>Layer 1</title>
  <path id="svg_1" fill="#5FD1CF" d="m580.5,344.1c50.59,0 91.6,-41.011 91.6,-91.6c0,-50.589 -41.01,-91.6 -91.6,-91.6c-50.589,0 -91.6,41.011 -91.6,91.6c0,50.589 41.011,91.6 91.6,91.6z"/>
  <path id="svg_2" fill="#7CE4CC" d="m114.6,292.8c-82.1,12.8 -114.6,48.6 -114.6,150.3l319.5,0l0,-259.5c-82.5,-76.2 -221.5,-3.9 -204.9,109.2z"/>
  <path id="svg_3" fill="#5FD1CF" d="m0,443.1c62.8,-132.2 184.7,-95.3 184.7,-95.3c-48,-94.9 25.2,-194 129.7,-180.1l55,275.4l-369.4,0z"/>
  <path id="svg_4" fill="#5FD1CF" d="m727.7,443.1c-6.3,-82.1 -46.5,-127.2 -124.3,-155.7c-12.4,-104.8 -93.3,-109.5 -140.4,-89l0,244.7l264.7,0z"/>
  <path id="svg_5" fill="#7CE4CC" d="m603.4,287.4c-10.9,-92.2 -74.9,-106.9 -122.2,-95.2c34.5,75.4 33.2,126.6 33.2,126.6c88.2,-10.7 146.6,2.2 199.3,62.1c-18.5,-44.5 -54.9,-73.2 -110.3,-93.5z"/>
  <path id="svg_6" fill="#944751" d="m260.601,443.1l351.4,0l0,-338.1l-351.4,23l0,315.1z"/>
  <path id="svg_7" fill="#873D47" d="m536.401,110c0.1,13.2 -3.7,51.4 -4.8,65.2c-1.1,13.8 -5.2,11.3 -5.2,-7.5c0,-18.8 1.2,-36.1 0,-44.7c-0.589,-4.077 -0.957,-8.183 -1.1,-12.3l11.1,-0.7z"/>
  <path id="svg_8" fill="#873D47" d="m586.2,316.2c-3.7,36.2 -14,21.7 -9.4,-20c4.6,-41.7 -12,-86 -13.5,-128.5c-1.5,-42.5 -4.8,-59.2 -4.8,-59.2l22.9,-1.5c3.8,52.2 7,96.4 8.3,117.4c1.4,22.9 0.1,55.6 -3.5,91.8z"/>
  <path id="svg_9" fill="#E8B19E" d="m612.001,105c-65.3,-10.9001 -251.7,-11.3001 -351.4,23l351.4,-23z"/>
  <path id="svg_10" fill="#E89B80" d="m499.201,109.4l84.7,-5c0,0 -62.2,-3.4 -88.8,-2.7l4.1,7.7z"/>
  <path id="svg_11" fill="#57273F" d="m595.401,416.4c-0.1,6.1 -0.1,17 -0.1,26.7l-334.7,0l0,-253.9l310.1,0l7.7,47.2c6.5,40.2 16,89.3 17,120.1c1,30.8 0.2,46.9 0,59.9z"/>
  <path id="svg_12" fill="#4A2336" d="m449.6,443.1c1.4,-17.6 17.8,-66 17.8,-66l-209.5,0l0,66l191.7,0z"/>
  <path id="svg_13" fill="#4F2439" d="m522,443.1c0,-32.1 5,-40.2 10.4,-54.4c5.4,-14.2 6.8,-21.7 9.9,-44.5c3.1,-22.8 4.5,-80.2 4.5,-80.2l-21.9,0c-1,44.3 2.1,84.8 -2.9,102.4c-5,17.6 -16.6,28.9 -18.9,44.2c-2.3,15.3 -3.9,32.5 -3.9,32.5l22.8,0z"/>
  <path id="svg_14" fill="#ED5C97" d="m575.101,387.5l5.3,-2.4c0.1,0 0.1,-0.2 0,-0.2l-5.3,-2.4l-0.1,0l-2.3,-5.3l-0.2,0l-2.4,5.3l-5.3,2.4c-0.1,0 -0.1,0.2 0,0.2l5.3,2.4l2.4,5.3l0.2,0l2.3,-5.3l0.1,0z"/>
  <path id="svg_15" fill="#944751" d="m612,302.5c0,23.5 3.9,49.1 24.5,70.2c20.6,21.1 25.6,26.6 29.5,38.9c3.9,12.3 9.8,18.2 9.8,18.2l14.8,6.6c3.9,1.7 4.4,6.7 4.4,6.7l-83,0l0,-140.6z"/>
  <path id="svg_16" fill="#873D47" d="m628.8,369.8c-2.3,4.7 -2.2,12.6 -2.2,18.9c0,6.3 1.3,16.3 1.6,22.8c0.3,6.5 1.4,8 -0.8,11.4c-2.2,3.4 -3.7,11.5 -4.1,20.2l-11.3,0c0,-6.7 0,-11 2.4,-16.4c2.4,-5.4 3.7,-5.6 3.4,-17.8c-0.3,-12.2 1.6,-33.5 10.4,-46l2.5,3.3l-1.9,3.6z"/>
  <path id="svg_17" fill="#873D47" d="m639.801,443.1c0.2,-13.2 0.1,-14.6 4.7,-20.5c4.6,-5.9 5.3,-5.9 5.3,-12.1c0,-6.2 -0.2,-12.8 2.1,-16c0.716,-1.039 1.634,-1.923 2.7,-2.6l-4.2,-4.7c-5.3,5.2 -7.3,15.1 -7.5,23.7c-0.2,10.1 -0.7,9.1 -4.3,13.7c-3.6,4.6 -3.8,5.4 -4.5,18.5l5.7,0z"/>
  <path id="svg_18" fill="#873D47" d="m669.401,443.1c0.488,-2.208 0.822,-4.446 1,-6.7c0.2,-3 0,-3.8 4.6,-7.6c-3.161,-3.954 -5.691,-8.373 -7.5,-13.1c-5.2,4.4 -4.9,7.2 -5.8,11.5c-0.859,5.472 -2.405,10.814 -4.6,15.9l12.3,0z"/>
  <path id="svg_19" fill="#4F2439" d="m558.5,307.7c0.2,12.8 1.3,18.8 4.8,24.5c3.5,5.7 4.8,2.4 7.4,-7.8c2.6,-10.2 0.3,-15.7 0,-25.9c-0.3,-10.2 -2.8,-15.7 -4.4,-20.9c-1.6,-5.2 -8.3,-5.9 -7.8,7.3c0.5,13.2 -0.1,17.2 0,22.8z"/>
  <path id="svg_20" fill="#944751" d="m586.4,108.6l2.8,-15.9l3.5,9.3l5.1,-5.1l1.8,10.8l-13.2,0.9z"/>
  <path id="svg_21" fill="#2A5D6B" d="m576.1,443.1c12,-27.6 -7.1,-29 -16.3,-16.5c1.6,-27.6 -13.4,-52.2 -25.1,-10.3c-12.3,-22.7 -34,-33.1 -21.3,13.1c-20.9,-12.8 -29.9,-7.3 -12.3,13.7l75,0z"/>
  <path id="svg_22" fill="#25525E" d="m525.201,443.1c-11.6,-18.8 3.6,-25.6 12,-12.6c12,-24.3 22.3,-29.3 15.2,12.6l-27.2,0z"/>
  <path id="svg_23" fill="#DEE5FF" d="m243.699,113.8l-28.4,103.9c-16.8,61.9 -14.8,141.6 95.8,218.7c121.2,-12.5 194,-75.4 214.7,-151.2l31.4,-114.9c-43.2,-22.2 -71.1,-43.2 -73.9,-92.7001l-138.7,-24.8999c-25.7,43.3 -74.5,55.4 -100.9,61.1z"/>
  <path id="svg_24" fill="#D4DFFF" d="m236.7,313.6l134.7,-98l0,31.1l-113.3,117.5l-21.4,-50.6z"/>
  <path id="svg_25" fill="#EBFAFF" d="m214.5,220.9c-4.225,15.8 -6.541,32.049 -6.9,48.4l198.9,-204.2001l-11.7,4.3l-161.2,110.9001l-19.1,40.6z"/>
  <path id="svg_26" fill="#C4CFFF" d="m538.199,178.5l-28,102.5c-9.7,35.6 -32,67.2 -64.2,91.3c-34.2,25.4 -79.5,42.2 -131.6,48.6c26.5,-173.8 90.3,-342.2 90.3,-342.2l62.7,11.3c3.8,21.3 12.4,39.3 26.1,54.6c13.7,15.3 28.3,24.7 44.7,33.9z"/>
  <path id="svg_27" fill="#B8C0FF" d="m341,267.3l85.3,131.7l78.6,-73l-132,-113.6l-31.9,54.9z"/>
  <path id="svg_28" fill="#CFD8FF" d="m373.6,171.2c-4,12.7 -8.1,26.5 -12.3,41.2l137.9,-61.9c-2,-1.9 -3.9,-3.9 -5.7,-5.9c-9.224,-10.255 -16.357,-22.212 -21,-35.2l-98.9,61.8z"/>
  <path id="svg_29" fill="#2949C7" d="m500.299,74.1999l-143.5,-25.8c-26.6,44.8 -77.2,57.4001 -104.4,63.3001l-29.399,107.5c-17.3,63.4 -25.5,144.9 85.7,223.9l32.4,0c114.1,-17.2 182.9,-79.7 203.199,-154.1c21.4,-78.4 32.5,-118.9 32.5,-118.9c-44.7,-23 -73.6,-44.7 -76.5,-95.9001zm23.401,209.2001c-9.8,35.7 -32.001,67.2 -64.201,91.3c-34.2,25.4 -86.799,41.7 -138.899,48.2c-44,-32 -67.9,-66.8 -80,-103.6c-9.4,-28.8 -9.301,-59.8 0.299,-94.9l26,-95.2c25.8,-6.4 68.6,-20.7 97,-57.8001l117.001,21c3.8,21.4001 12.4,39.3001 26.1,54.6001c13.7,15.3 28.3,24.7 44.7,33.9l-28,102.5z"/>
  <path id="svg_30" fill="#203DB3" d="m363.9,71.3999l-10.7,-2l-97.1,57.8001l10.8,2c12.668,-3.169 25.072,-7.314 37.1,-12.4c19.5,-8.3 42.9,-23.1001 59.9,-45.4001z"/>
  <path id="svg_31" fill="#203DB3" d="m544.3,289c21.4,-78.4 32.5,-118.9 32.5,-118.9l-13.5,-2.4l-12,13l0.4,0.2l-28,102.5c-9.8,35.7 -32,67.2 -64.2,91.3c-32.2,24.1 -81.7,40.1 -131.2,47.1l-19.6,21.3l32.4,0c114.1,-17.2 182.9,-79.7 203.2,-154.1z"/>
  <path id="svg_32" fill="#1D38A3" d="m499.4,334.3c-11.128,15.451 -24.588,29.08 -39.9,40.4c-32.5,24.2 -81.7,40.1 -131.2,47.1l-19.6,21.3l32.4,0c90,-13.6 151.7,-55.3 183.8,-108.8l-25.5,0z"/>
  <path id="svg_33" fill="#152875" d="m429,392.9c-29.3,14.1 -64.9,23.8 -100.7,28.9l-19.6,21.3l32.4,0c53.2,-8 96.5,-25.9 129.7,-50.2l-41.8,0z"/>
  <path id="svg_34" fill="#466AE1" d="m486.8,71.7999l-143.5,-25.9c-26.6,44.9 -77.1,57.5001 -104.4,63.3001l-29.4,107.6c-17.5,64 -15.4,146.5 99.2,226.3c125.4,-12.9 200.7,-78.1 222.1,-156.5c21.4,-78.4 32.5,-118.9 32.5,-118.9c-44.7,-23 -73.5,-44.7 -76.5,-95.9001zm23.4,209.2001c-9.7,35.6 -32,67.2 -64.2,91.3c-34.2,25.4 -79.5,42.2 -131.6,48.6c-44,-32 -72.4,-66.8 -84.5,-103.5c-9.4,-28.8 -9.4,-59.9 0.2,-95l26,-95.2c25.8,-6.3 68.7,-20.6 97.1,-57.8001l114.2,20.6c3.8,21.3001 12.4,39.3001 26.1,54.6001c13.7,15.3 28.3,24.7 44.7,33.9l-28,102.5z"/>
  <path id="svg_36" fill="#CFD8FF" d="m369.199,355.2l5.3,-2.3c0.1,-0.1 0.1,-0.2 0,-0.2l-5.3,-2.4l-0.1,0l-2.3,-5.3c-0.1,-0.1 -0.2,-0.1 -0.2,0l-2.4,5.3l-0.1,0l-5.2,2.4c-0.1,0 -0.1,0.1 0,0.2l5.2,2.3c0.013,0 0.026,0.002 0.038,0.007c0.013,0.005 0.024,0.013 0.033,0.022c0.009,0.009 0.017,0.02 0.022,0.033c0.005,0.012 0.007,0.025 0.007,0.038l2.4,5.3l0.2,0l2.3,-5.3l0.1,-0.1z"/>
  <path id="svg_37" fill="#B8C0FF" d="m479.799,271.4l-12.4,-14.8l29.8,0l-17.4,14.8z"/>
  <path id="svg_38" fill="#C4CAFF" d="m426.3,356.5c2.043,0 3.7,-1.657 3.7,-3.7c0,-2.044 -1.657,-3.7 -3.7,-3.7c-2.044,0 -3.7,1.656 -3.7,3.7c0,2.043 1.656,3.7 3.7,3.7z"/>
  <path id="svg_39" fill="#EDF1FF" d="m370.159,132.628l-3.171,-4.494l-4.51,3.182l3.17,4.494l4.511,-3.182z"/>
  <path id="svg_40" fill="#C4CAFF" d="m352.3,324.7c2.099,0 3.8,-1.701 3.8,-3.8c0,-2.099 -1.701,-3.8 -3.8,-3.8c-2.099,0 -3.8,1.701 -3.8,3.8c0,2.099 1.701,3.8 3.8,3.8z"/>
  <path id="svg_41" fill="#50568F" d="m215.1,300.9l-93,0l0,19.97l93,0l0,-19.97z"/>
  <path id="svg_42" fill="url(#paint0_linear)" d="m215.1,300.9l-49.1,0l0,19.97l49.1,0l0,-19.97z"/>
  <path id="svg_43" fill="#57639C" d="m142.1,300.9l-20,0l0,19.97l20,0l0,-19.97z"/>
  <path id="svg_44" fill="#6977B5" d="m157.3,300.9l-19.6,0l0,19.97l19.6,0l0,-19.97z"/>
  <path id="svg_45" fill="#96B0D9" d="m153,300.9l-13,0l0,19.97l13,0l0,-19.97z"/>
  <path id="svg_46" fill="#803333" d="m194.4,114l-51.7,0l4.7,186.9l42.4,0l4.6,-186.9z"/>
  <path id="svg_47" fill="#6E2C37" d="m189.8,300.9l4.3,-174.9l-25.5,0l0,174.9l21.2,0z"/>
  <path id="svg_48" fill="#5E263B" d="m143.9,150.7l49.8,-1l0.3,-0.4c0.311,-0.348 0.474,-0.804 0.455,-1.27c-0.018,-0.467 -0.218,-0.908 -0.555,-1.23l-0.2,-0.3l-50,1.1c-0.189,0.154 -0.345,0.345 -0.458,0.561c-0.113,0.216 -0.181,0.453 -0.2,0.696c-0.018,0.243 0.013,0.488 0.091,0.719c0.079,0.23 0.204,0.443 0.367,0.624l0.4,0.5z"/>
  <path id="svg_49" fill="#5E263B" d="m144.3,178.4l48.4,1.9l0.4,-0.4c0.299,-0.343 0.471,-0.778 0.49,-1.232c0.018,-0.455 -0.12,-0.902 -0.39,-1.268l-0.3,-0.3l-48.6,-1.9c-0.38,0.33 -0.623,0.791 -0.678,1.291c-0.056,0.501 0.079,1.004 0.378,1.409l0.3,0.5z"/>
  <path id="svg_50" fill="#5E263B" d="m192.2,203.9l-47.3,0c-0.218,-0.206 -0.392,-0.454 -0.51,-0.729c-0.119,-0.275 -0.18,-0.571 -0.18,-0.871c0,-0.3 0.061,-0.596 0.18,-0.871c0.118,-0.275 0.292,-0.523 0.51,-0.729l0,0l47.5,-1.1l0.1,0c0.309,0.607 0.461,1.282 0.444,1.963c-0.018,0.681 -0.205,1.346 -0.544,1.937l-0.2,0.4z"/>
  <path id="svg_51" fill="#592438" d="m151.9,126c-1.5,41.7 -0.5,70 3.4,89.3c0.193,0.918 0.718,1.732 1.475,2.286c0.757,0.554 1.692,0.808 2.625,0.714c4.337,-0.475 8.621,-1.345 12.8,-2.6c0.961,-0.258 1.795,-0.857 2.347,-1.685c0.552,-0.828 0.784,-1.829 0.653,-2.815c-5.9,-44.7 -0.2,-87 -0.2,-87l-23.1,1.8z"/>
  <path id="svg_52" fill="#43487A" d="m269.1,320.9l-201.1,0l-13.5,13.4l0,95.3l13.5,13.5l201.1,0l13.5,-13.5l0,-95.3l-13.5,-13.4z"/>
  <path id="svg_53" fill="#616999" d="m151.5,320.9l-83.5,0l-13.5,13.4l0,95.3l13.5,13.5l83.5,0l-11.5,-13.5l0,-95.3l11.5,-13.4z"/>
  <path id="svg_54" fill="#505B8A" d="m54.5,429.6l85.5,0l11.5,13.5l-83.5,0l-13.5,-13.5z"/>
  <path id="svg_55" fill="#352F5C" d="m157.3,429.6l125.3,0l-13.5,13.5l-117.6,0l5.8,-13.5z"/>
  <path id="svg_56" fill="#616999" d="m139.9,334.3l-85.4,0l0,95.32l85.4,0l0,-95.32z"/>
  <path id="svg_57" fill="#505A91" d="m151.5,320.9l-11.5,13.4l0,95.3l11.5,13.5l5.8,-13.5l0,-95.3l-5.8,-13.4z"/>
  <path id="svg_58" fill="#3E4275" d="m157.3,429.6l-17.3,0l11.5,13.5l5.8,-13.5z"/>
  <path id="svg_59" fill="url(#paint1_linear)" d="m215,300.9l-36.3,0l0,19.97l36.3,0l0,-19.97z"/>
  <path id="svg_60" fill="#7B9BC2" d="m151.5,320.9l-11.5,13.4l-85.5,0l13.5,-13.4l83.5,0z"/>
  <path id="svg_61" fill="#666EA1" d="m140,334.3l17.3,0l-5.8,-13.4l-11.5,13.4z"/>
  <path id="svg_62" fill="#515794" d="m157.3,334.3l125.3,0l-13.5,-13.4l-117.6,0l5.8,13.4z"/>
  <path id="svg_63" fill="#7A214C" d="m139.9,89.1999c12.5,4.2 13.9,30.3001 13.9,30.3001l23,0l-9.8,-34.1001l-27.1,3.8z"/>
  <path id="svg_64" fill="#B83776" d="m153.6,71.3999c-9.3,0 -17.7,6.4 -27,20.4c-7.7,11.7001 -16.5,19.8001 -26.6996,29.2001c-6.7,6.2 -14.4,13.3 -22.4,22.1c-11.5,12.6 -10.5,24.2 -4.5,30.1c2.6548,2.482 6.1657,3.844 9.8,3.8l-15,0c-2.939,0.008 -5.819,-0.824 -8.3,-2.4c-9.4,-6.2 -12.7,-13.8 -9,-26.2c4.1,-14.1 28.7,-31.6 42.4,-43.8c11.4996,-10.2001 13.7996,-18.6001 22.2996,-27.7001c1.666,-1.7425 3.669,-3.1284 5.886,-4.0739c2.217,-0.9454 4.604,-1.4306 7.014,-1.4261l25.5,0z"/>
  <path id="svg_65" fill="#A62D67" d="m82.8002,177c-3.6343,0.044 -7.1452,-1.318 -9.8,-3.8c-6,-5.9 -7,-17.5 4.5,-30.1c8.1,-8.8 15.7,-15.9 22.4,-22.1c10.1998,-9.4 18.9998,-17.5 26.6998,-29.2c10.1,-15.2 19.2,-21.5 29.4,-20.3c13.1,1.6 22.6,16.9 26.7,43.3c0.058,0.251 0.062,0.512 0.011,0.765c-0.052,0.253 -0.157,0.492 -0.309,0.7c-0.151,0.209 -0.346,0.382 -0.571,0.509c-0.224,0.127 -0.474,0.204 -0.731,0.226c-0.25,0.043 -0.506,0.035 -0.752,-0.023c-0.247,-0.058 -0.48,-0.164 -0.685,-0.313c-0.205,-0.149 -0.378,-0.338 -0.509,-0.555c-0.131,-0.217 -0.217,-0.458 -0.254,-0.709c-3.8,-24.5 -12.1,-38.7 -23.3,-40c-8.6,-1 -16.6,4.7 -25.8,18.5c-8,12.1 -16.9,20.4 -27.3,30c-6.9998,6.4 -14.1998,13.1 -22.1998,21.8c-9.7,10.7 -9.3,20.1 -4.6,24.7c4.7,4.6 10.8,4.5 17.6,-2.1c12.8998,-12.4 27.1998,-39.7 36.6998,-57.8l4.4,-8.4c5,-9.2 11,-17.6 21.6,-16.9c10.6,0.7 15.9,10 19.5,29.6c0.046,0.249 0.043,0.506 -0.011,0.754c-0.053,0.248 -0.154,0.483 -0.298,0.692c-0.144,0.209 -0.327,0.387 -0.54,0.525c-0.213,0.138 -0.451,0.233 -0.701,0.279c-0.249,0.046 -0.505,0.042 -0.754,-0.011c-0.248,-0.053 -0.483,-0.154 -0.692,-0.298c-0.209,-0.144 -0.387,-0.328 -0.525,-0.541c-0.138,-0.212 -0.233,-0.451 -0.279,-0.7c-4.7,-25.7 -13.2,-26.3 -16,-26.5c-6.8,-0.4 -11.9,3.9 -17.9,15l-4.4,8.3c-9.6,18.3 -24.1,45.9 -37.3998,58.8c-4.3,4.2 -9,5.9 -13.2,5.9z"/>
  <path id="svg_66" fill="#7A214C" d="m178.8,114.8c-3.9,-24.1001 -12.1,-38.1001 -23.2,-39.4001c-8.6,-1 -16.6,4.7 -25.8,18.5c-8,12.1001 -16.9,20.4001 -27.3,30.0001l-0.9,0.8c-5.9002,9.1 -16.5002,25.3 -21.7002,33c-1.8367,2.925 -4.253,5.444 -7.1,7.4l0,0c0.4531,2.003 1.4576,3.839 2.9,5.3c3.7,3.6 10.8,4.5 17.6,-2c12.9002,-12.5 27.2002,-39.8 36.7002,-57.9l4.4,-8.4c5,-9.2001 11,-17.6001 21.6,-16.9001c10.6,0.7 15.9,10 19.5,29.6001l3.3,0l0,0z"/>
  <path id="svg_67" fill="#611037" d="m155.6,75.3999c-6.5,-0.8 -12.6,2.3 -19.2,9.8l17.2,0c0.797,-0.1004 1.604,-0.1004 2.4,0c9.7,0.6 15.9,10 19.5,29.6001l3.3,0c-3.9,-24.1001 -12.1,-38.1001 -23.2,-39.4001z"/>
  <path id="svg_68" fill="#872454" d="m112.2,114.8l-9.7,9.1l-0.9,0.8c-5.9002,9.1 -16.5002,25.3 -21.7002,33c-1.8367,2.926 -4.253,5.444 -7.1,7.4l0,0c0.4531,2.003 1.4576,3.839 2.9,5.3c3.7,3.6 10.8,4.5 17.6,-2c11.9002,-11.6 25.1002,-35.8 34.5002,-53.6l-15.6,0z"/>
  <path id="svg_69" fill="#CF3E85" d="m116.2,76l-1,0.9c-4.4,4.7 -7.1,9.2 -10.3,13.8l22.5,0c4.534,-6.6667 8.934,-11.5667 13.2,-14.7l-24.4,0z"/>
  <path id="svg_70" fill="#A62D67" d="m49,157.7c0.1,7.2 3.7,12.4 10.5,16.9c2.481,1.576 5.361,2.408 8.3,2.4l15,0c-3.6343,0.044 -7.1452,-1.318 -9.8,-3.8c-3.6,-3.5 -5.3,-9 -3.9,-15.5l-20.1,0z"/>
  <path id="svg_71" fill="#C43A7E" d="m106.6,114.8l-25.7002,0l-4.1,3.4l26.1002,0l3.7,-3.4z"/>
  <path id="svg_72" fill="#C43A7E" d="m117.2,92.2l3.6,1.4l-6.4,1.4l2.8,-2.8z"/>
  <path id="svg_73" fill="#C43A7E" d="m76.8,124.2l-4.8,3.5l6.7,-1l-1.9,-2.5z"/>
  <path id="svg_74" fill="#C43A7E" d="m100.3,109.2l2.7,1.7l1.2,-2.4l-3.9,0.7z"/>
  <path id="svg_75" fill="#C43A7E" d="m122.8,78.3999l-7.1,4.9l-0.5,-3.2l7.6,-1.7z"/>
  <path id="svg_76" fill="#A0C5E8" d="m88.9002,320.9l-12.7,13.4l22.6,0l12.6998,-13.4l-22.5998,0z"/>
  <path id="svg_77" fill="#505A91" d="m192.1,111.5c-15.317,-4.9 -31.782,-4.9 -47.1,0c-0.71,0.222 -1.351,0.624 -1.859,1.167c-0.508,0.543 -0.867,1.209 -1.041,1.933l-2.6,10.6c-0.078,0.301 -0.084,0.615 -0.019,0.919c0.065,0.304 0.2,0.589 0.394,0.831c0.194,0.243 0.442,0.437 0.724,0.567c0.282,0.13 0.591,0.193 0.901,0.183l54.1,0c0.311,0.01 0.619,-0.053 0.902,-0.183c0.282,-0.13 0.53,-0.324 0.724,-0.567c0.194,-0.242 0.329,-0.527 0.394,-0.831c0.065,-0.304 0.058,-0.618 -0.02,-0.919l-2.6,-10.6c-0.174,-0.724 -0.532,-1.39 -1.04,-1.933c-0.509,-0.543 -1.149,-0.945 -1.86,-1.167l0,0z"/>
  <path id="svg_78" fill="#592438" d="m143.1,129.2l50.9,1.7l0.1,-3.2l-51,0l0,1.5z"/>
  <path id="svg_79" fill="#3D3C6E" d="m153.1,109.4c-1.446,6.033 -2.547,12.142 -3.3,18.3l27.7,0c0.4,-9.1 0.8,-15.4 1,-19.3c-8.462,-1.116 -17.052,-0.778 -25.4,1l0,0z"/>
  <path id="svg_80" fill="#5E263B" d="m147.1,289.9l42.9,1.2c0.429,-0.416 0.679,-0.982 0.698,-1.58c0.018,-0.597 -0.196,-1.178 -0.598,-1.62l0,0l-43.1,-2.4l-0.1,0c-0.299,0.589 -0.455,1.24 -0.455,1.9c0,0.66 0.156,1.311 0.455,1.9l0.2,0.6z"/>
  <path id="svg_81" fill="#5E263B" d="m146.6,268.9l44,-1.1l0.3,-0.4c0.401,-0.581 0.6,-1.279 0.564,-1.984c-0.037,-0.706 -0.305,-1.379 -0.764,-1.916l0,0l-44.2,1.7l-0.5,0.6c-0.324,0.381 -0.494,0.87 -0.475,1.369c0.018,0.5 0.223,0.975 0.575,1.331l0.5,0.4z"/>
  <path id="svg_82" fill="#5E263B" d="m146,235l45.1,0.5l0.3,-0.4c0.284,-0.355 0.439,-0.796 0.439,-1.25c0,-0.454 -0.155,-0.895 -0.439,-1.25l-0.2,-0.3l-45.3,-0.5c-0.33,0.36 -0.537,0.816 -0.591,1.301c-0.054,0.485 0.048,0.975 0.291,1.399l0.4,0.5z"/>
  <path id="svg_83" fill="#43487A" d="m140,374.9l4.5,9l-4.5,1.3l0,-10.3z"/>
  <path id="svg_84" fill="#7CE4CC" d="m53.5,358.9l2.9,-4.9l-2.9,-5l0,9.9z"/>
  <path id="svg_85" fill="#617099" d="m54.5,415.5l85.5,-19.6l0,-28.2l-85.5,20.6l0,27.2z"/>
  <path id="svg_86" fill="#5A6394" d="m101.1,345.2l22.2,2.5l-31.5002,14.3l9.3002,-16.8z"/>
  <path id="svg_87" fill="#404478" d="m231.2,334.3l51.4,29.9l0,17.8l-88.5,-28l37.1,-19.7z"/>
  <path id="svg_88" fill="#6A64E3" d="m271.501,0l-0.5,0l-16.7,23.8l0,0.6l16.7,23.8l0.5,0l16.7,-23.8l0,-0.6l-16.7,-23.8z"/>
  <path id="svg_89" fill="white" d="m307.1,93.7l11,-4.9c0.053,0 0.104,-0.021 0.142,-0.0585c0.037,-0.0375 0.058,-0.0884 0.058,-0.1415c0,-0.053 -0.021,-0.1039 -0.058,-0.1414c-0.038,-0.0375 -0.089,-0.0586 -0.142,-0.0586l-11,-4.9l-0.1,0l-4.9,-11.1c-0.027,-0.0412 -0.064,-0.0751 -0.108,-0.0985c-0.043,-0.0234 -0.092,-0.0356 -0.142,-0.0356c-0.049,0 -0.098,0.0122 -0.141,0.0356c-0.044,0.0234 -0.081,0.0573 -0.109,0.0985l-4.9,11.1l-0.1,0l-11,4.9c-0.053,0 -0.104,0.0211 -0.141,0.0586c-0.038,0.0375 -0.059,0.0884 -0.059,0.1414c0,0.0531 0.021,0.104 0.059,0.1415c0.037,0.0375 0.088,0.0585 0.141,0.0585l11,4.9c0,0.1 0.1,0.1 0.1,0.2l4.9,11c0.028,0.041 0.065,0.075 0.109,0.099c0.043,0.023 0.092,0.035 0.141,0.035c0.05,0 0.099,-0.012 0.142,-0.035c0.044,-0.024 0.081,-0.058 0.108,-0.099l4.9,-11c0,-0.1 0,-0.1 0.1,-0.2z"/>
  <path id="svg_90" fill="#FFED89" d="m64.3004,257.6l9.9,-4.5c0.2,0 0.2,-0.3 0,-0.4l-9.9,-4.4l-0.2,0l-4.4,-10c0,-0.053 -0.0211,-0.104 -0.0586,-0.141c-0.0375,-0.038 -0.0884,-0.059 -0.1414,-0.059c-0.0531,0 -0.1039,0.021 -0.1414,0.059c-0.0375,0.037 -0.0586,0.088 -0.0586,0.141l-4.4,10c-0.0265,0 -0.052,0.011 -0.0707,0.029c-0.0188,0.019 -0.0293,0.045 -0.0293,0.071l-10,4.4c-0.2,0.1 -0.2,0.4 0,0.4l10,4.5l0.1,0l4.4,10c0.055,0.049 0.1262,0.076 0.2,0.076c0.0738,0 0.145,-0.027 0.2,-0.076l4.4,-10l0.2,-0.1z"/>
 </g>
</svg>